<?xml version="1.0" encoding="utf-8"?>
<!-- Generator: Adobe Illustrator 19.0.0, SVG Export Plug-In . SVG Version: 6.00 Build 0)  -->
<svg version="1.1" id="Слой_1" xmlns="http://www.w3.org/2000/svg" xmlns:xlink="http://www.w3.org/1999/xlink" x="0px" y="0px"
	 width="70px" height="35px" viewBox="0 0 70 35" enable-background="new 0 0 70 35" xml:space="preserve">
<g id="XMLID_9822_" display="none">
	<path id="XMLID_1910_" display="inline" fill="#563D2D" d="M45.884,6.458H24.581c-0.623,0-1.129,0.506-1.129,1.129v5.929h3.196
		V9.81c0-0.623,0.505-1.129,1.129-1.129h5.322c0.623,0,1.129,0.505,1.129,1.129v3.706h2.009V9.81c0-0.623,0.506-1.129,1.129-1.129
		h5.322c0.623,0,1.129,0.505,1.129,1.129v3.706h3.196V7.587C47.013,6.964,46.508,6.458,45.884,6.458z"/>
	<path id="XMLID_1909_" display="inline" fill="#563D2D" d="M50.001,20.553v-2.958c0-1.407-1.14-2.547-2.547-2.547H23.011
		c-1.406,0-2.547,1.14-2.547,2.547v2.958H50.001z"/>
	<polygon id="XMLID_1908_" display="inline" fill="#563D2D" points="18.997,21.907 18.997,27.289 22.764,27.289 22.764,24.84 
		47.701,24.84 47.701,27.289 51.468,27.289 51.468,21.907 	"/>
</g>
<g id="XMLID_9802_" display="none">
	<g id="XMLID_9813_" display="inline">
		<path id="XMLID_1904_" fill="#563D2D" d="M38.672,21.812c-0.015-1.045,0.892-1.974,1.991-1.937
			c1.003,0.033,1.889,0.872,1.873,1.968c-0.014,1.027-0.885,1.919-1.965,1.899C39.554,23.721,38.677,22.901,38.672,21.812z"/>
		<path id="XMLID_9814_" fill="#563D2D" d="M40.604,24.081c0,0-0.035,0-0.037,0c-1.25-0.027-2.229-1.022-2.232-2.269
			c-0.008-0.58,0.23-1.162,0.657-1.596c0.434-0.439,1.003-0.68,1.607-0.68c1.308,0.042,2.295,1.08,2.277,2.311
			C42.859,23.078,41.84,24.081,40.604,24.081z M40.646,20.213c-0.468,0-0.868,0.169-1.173,0.479
			c-0.299,0.304-0.466,0.71-0.461,1.115c0.003,0.879,0.691,1.578,1.567,1.596l0.024,0.339v-0.339c0.852,0,1.583-0.717,1.594-1.567
			c0.013-0.866-0.681-1.594-1.546-1.623C40.649,20.213,40.649,20.213,40.646,20.213z"/>
	</g>
	<g id="XMLID_9803_" display="inline">
		<path id="XMLID_9810_" fill="#563D2D" d="M49.406,9.681c0.544-0.266,1.065-0.52,1.596-0.78c-0.212-0.375-0.41-0.724-0.635-1.12
			c0.44,0.263,0.832,0.487,1.212,0.73c0.095,0.061,0.157,0.07,0.256,0.028c0.635-0.268,1.273-0.531,1.91-0.794
			c0.335-0.138,0.67-0.275,1.018-0.417c-0.083-0.053-0.147-0.106-0.221-0.139c-0.724-0.322-1.464-0.61-2.246-0.743
			c-0.557-0.095-1.124-0.167-1.687-0.174c-0.473-0.006-0.954,0.068-1.421,0.161c-0.819,0.163-1.571,0.5-2.251,0.989
			c-0.253,0.181-0.497,0.374-0.735,0.554c-0.067-0.343-0.134-0.68-0.2-1.018c-0.175-0.892-0.469-1.742-0.967-2.506
			c-0.209-0.32-0.488-0.595-0.735-0.891c-0.083,0-0.166,0-0.249,0c-0.037,0.086-0.076,0.172-0.11,0.259
			c-0.116,0.302-0.246,0.6-0.344,0.909c-0.212,0.67-0.29,1.36-0.251,2.062c0.016,0.286,0.027,0.575,0.075,0.856
			c0.074,0.435,0.178,0.864,0.27,1.301c-2.148-1.792-4.497-1.873-6.982-0.808c1.697,1.271,3.579,2.152,5.603,2.791
			c-2.248,0.887-3.649,2.406-3.784,4.903c0.3-0.083,0.583-0.177,0.847-0.31c0.963-0.483,1.92-0.98,2.88-1.469
			c0.113-0.058,0.155-0.117,0.11-0.258c-0.077-0.242-0.119-0.496-0.175-0.745c0.011-0.006,0.021-0.011,0.032-0.017
			c0.205,0.22,0.409,0.439,0.625,0.672c0.607-0.393,1.207-0.782,1.81-1.173c0.185,0.583,0.55,0.963,1.129,1.139
			c0.059,0.018,0.116,0.128,0.127,0.203c0.065,0.458,0.12,0.917,0.172,1.377c0.059,0.521,0.142,1.042,0.158,1.565
			c0.026,0.892,0.009,1.785,0.003,2.677c-0.001,0.06-0.046,0.141-0.095,0.175c-1.065,0.75-2.134,1.494-3.202,2.241
			c-0.783,0.547-1.544,1.131-2.428,1.519c-0.145,0.063-0.266,0.09-0.412,0.002c-0.196-0.119-0.41-0.209-0.607-0.327
			c-0.315-0.189-0.628-0.212-0.936-0.004c-0.544,0.368-1.079,0.751-1.627,1.115c-0.149,0.099-0.321,0.176-0.494,0.22
			c-0.176,0.044-0.365,0.04-0.549,0.043c-0.053,0.001-0.116-0.033-0.158-0.07c-0.455-0.407-0.908-0.816-1.357-1.229
			c-0.435-0.401-0.864-0.808-1.296-1.211c-0.181-0.169-0.363-0.336-0.545-0.503c-0.088-0.081-0.158-0.111-0.273-0.009
			c-0.253,0.226-0.53,0.425-0.795,0.639c-0.541,0.436-1.079,0.874-1.624,1.316c-0.298-0.155-0.608-0.284-0.883-0.465
			c-0.606-0.399-1.196-0.822-1.792-1.237c-1.018-0.708-2.038-1.415-3.051-2.13c-0.067-0.047-0.123-0.169-0.118-0.251
			c0.026-0.374,0.073-0.746,0.118-1.118c0.068-0.574,0.134-1.149,0.214-1.722c0.015-0.106,0.069-0.272,0.142-0.296
			c0.554-0.182,0.923-0.527,1.076-1.098c0.017-0.063,0.074-0.145,0.131-0.165c0.396-0.138,0.701-0.388,0.934-0.73
			c0.059-0.086,0.111-0.114,0.215-0.069c0.353,0.156,0.711,0.297,1.064,0.452c0.198,0.087,0.388,0.19,0.583,0.286
			c0.131-0.221,0.251-0.424,0.371-0.627c0.042,0.235,0.069,0.453,0.032,0.659c-0.025,0.143,0.015,0.193,0.122,0.255
			c0.421,0.245,0.842,0.491,1.255,0.751c0.591,0.372,1.174,0.756,1.777,1.145c0.019-0.085,0.057-0.169,0.052-0.25
			c-0.021-0.375-0.018-0.757-0.091-1.124c-0.133-0.668-0.363-1.299-0.806-1.844c-0.435-0.536-0.971-0.914-1.613-1.136
			c-0.684-0.237-1.395-0.314-2.117-0.296c-0.049,0.001-0.098-0.007-0.148-0.011c-0.006-0.02-0.012-0.04-0.017-0.061
			c1.913-0.964,3.826-1.928,5.74-2.893c-0.753-0.418-2.083-0.7-2.879-0.727c-0.267-0.009-0.539,0.001-0.801,0.043
			c-0.411,0.065-0.827,0.135-1.222,0.259c-0.319,0.101-0.623,0.266-0.913,0.437c-0.43,0.252-0.823,0.556-1.132,0.959
			c-0.117,0.152-0.261,0.284-0.394,0.427c-0.518-2.564-1.607-4.69-4.121-5.909c-0.119,2.042,0.501,3.822,1.499,5.508
			c-1.199-1.01-2.51-1.765-4.102-1.937c-1.601-0.173-3.052,0.217-4.445,1.1c0.329,0.093,0.597,0.159,0.859,0.244
			c0.745,0.242,1.487,0.494,2.231,0.735c0.057,0.019,0.145,0.006,0.194-0.027c0.315-0.218,0.622-0.445,0.933-0.669
			c0.01,0.008,0.021,0.017,0.032,0.025c-0.146,0.309-0.292,0.618-0.437,0.925c0.896,0.35,1.771,0.693,2.691,1.053
			c-3.476,0.397-5.33,3.311-5.678,5.276c1.102-0.794,2.28-1.411,3.494-1.946c0.022-0.29,0.042-0.56,0.067-0.875
			c0.141,0.251,0.261,0.466,0.382,0.683c0.032-0.006,0.059-0.009,0.084-0.016c0.814-0.248,1.632-0.488,2.442-0.75
			c0.256-0.083,0.439-0.081,0.641,0.137c0.114,0.124,0.156,0.221,0.175,0.378c0.028,0.23,0.063,0.477,0.174,0.673
			c0.136,0.24,0.224,0.434,0.427,0.673c-0.03,0.121-0.083,0.289-0.111,0.462c-0.198,1.205-0.514,2.419-0.621,3.635
			c-0.466,5.294,0.691,9.404,0.927,10.291c0.042,0.157,0.126,0.202,0.281,0.2c0.511-0.006,1.151,0.002,1.663,0.002
			c0.064,0,0.128-0.021,0.198-0.034c-1.196-3.377-1.73-6.833-1.605-10.393c0.021,0.004,0.035,0.004,0.045,0.01
			c0.682,0.472,1.365,0.942,2.043,1.419c0.195,0.137,0.403,0.27,0.562,0.444c0.636,0.698,1.245,1.423,1.885,2.117
			c0.369,0.399,0.772,0.768,1.174,1.135c0.286,0.261,0.586,0.51,0.898,0.74c0.458,0.338,0.92,0.674,1.403,0.976
			c0.401,0.251,0.822,0.474,1.254,0.667c0.598,0.268,1.232,0.429,1.893,0.429c0.299,0,0.6-0.037,0.897-0.08
			c0.781-0.113,1.493-0.421,2.175-0.806c0.187-0.106,0.373-0.212,0.59-0.336c0.01,0.111,0.024,0.19,0.024,0.269
			c0.004,0.702,0.005,1.403,0.009,2.105c0.002,0.328,0.292,0.621,0.62,0.639c0.372,0.021,0.749-0.261,0.749-0.811
			c0.001-1.038,0.001-2.075-0.002-3.113c0-0.102,0.023-0.168,0.109-0.237c0.24-0.193,0.476-0.392,0.694-0.609
			c0.522-0.522,1.034-1.054,1.547-1.585c0.119-0.123,0.23-0.254,0.339-0.385c0.328-0.392,0.623-0.817,0.987-1.171
			c0.314-0.305,0.703-0.533,1.062-0.789c0.418-0.298,0.841-0.59,1.262-0.884c-0.244,3.543-1.17,6.915-2.341,10.251
			c0.054,0.011,0.105,0.031,0.156,0.032c0.56,0.001,1.12-0.006,1.68,0.002c0.16,0.002,2.107-5.537,2.107-9.307
			c0-4.744-0.624-6.608-0.79-7.5c-0.043-0.231-0.046-0.404,0.198-0.578c0.298-0.212,0.485-0.549,0.503-0.941
			c0.006-0.128,0.074-0.154,0.176-0.141c0.209,0.026,0.42,0.045,0.625,0.09c0.901,0.192,1.766,0.501,2.617,0.87
			c0.155-0.285,0.307-0.564,0.467-0.859c0.022,0.332,0.05,0.635,0.057,0.938c0.002,0.13,0.05,0.19,0.16,0.249
			c0.689,0.366,1.375,0.736,2.058,1.113c0.231,0.127,0.45,0.276,0.674,0.414c0.014-0.015,0.028-0.03,0.042-0.045
			C53.819,12.322,52.217,10.44,49.406,9.681z M33.097,24.342c-0.452-0.085-0.905-0.171-1.393-0.263
			c0.225-0.182,0.415-0.335,0.628-0.508c0.259,0.237,0.521,0.477,0.783,0.716C33.109,24.306,33.103,24.324,33.097,24.342z"/>
		<path id="XMLID_9804_" fill="#563D2D" d="M45.684,31.046c-0.003,0-0.003,0-0.005,0L44,31.043c-0.074,0-0.138-0.016-0.183-0.029
			c-0.093-0.024-0.198-0.093-0.241-0.177c-0.045-0.082-0.082-0.188-0.05-0.275c1.287-3.661,1.999-6.613,2.266-9.451
			c-0.222,0.156-0.447,0.312-0.67,0.471c-0.101,0.074-0.204,0.143-0.307,0.212c-0.262,0.177-0.508,0.344-0.715,0.545
			c-0.238,0.23-0.445,0.492-0.664,0.77c-0.098,0.127-0.196,0.251-0.299,0.373c-0.116,0.137-0.233,0.275-0.358,0.405
			c-0.511,0.529-1.027,1.064-1.548,1.588c-0.228,0.228-0.474,0.434-0.72,0.633l0.019,3.087c0,0.749-0.543,1.152-1.054,1.152
			c-0.561-0.029-0.99-0.477-0.995-0.977l-0.008-1.808l-0.111,0.063c-0.837,0.474-1.567,0.744-2.292,0.847
			c-0.937,0.13-1.98,0.072-2.976-0.373c-0.442-0.198-0.876-0.429-1.295-0.688c-0.508-0.32-1.001-0.681-1.424-0.993
			c-0.31-0.23-0.622-0.487-0.924-0.765c-0.431-0.392-0.831-0.76-1.196-1.154c-0.344-0.373-0.68-0.755-1.014-1.136
			c-0.289-0.331-0.577-0.659-0.873-0.982c-0.109-0.122-0.259-0.225-0.418-0.336l-0.087-0.058c-0.521-0.365-1.046-0.731-1.57-1.091
			c-0.042,3.285,0.495,6.533,1.601,9.662c0.032,0.093,0.024,0.196-0.026,0.283c-0.048,0.085-0.132,0.146-0.23,0.164
			c-0.106,0.024-0.18,0.04-0.262,0.04l-1.26-0.005l-0.4,0.003c-0.408,0-0.556-0.244-0.612-0.447L23.079,30.5
			c-0.908-3.402-1.215-6.872-0.913-10.316c0.072-0.802,0.23-1.604,0.387-2.383c0.085-0.426,0.169-0.852,0.241-1.279
			c0.018-0.114,0.048-0.228,0.074-0.328c-0.116-0.159-0.196-0.302-0.273-0.442l-0.079-0.143c-0.143-0.257-0.185-0.548-0.215-0.799
			c-0.011-0.085-0.021-0.117-0.087-0.185c-0.074-0.079-0.106-0.079-0.127-0.079c-0.037,0-0.087,0.011-0.159,0.034
			c-0.569,0.183-1.138,0.355-1.71,0.527l-0.741,0.222c-0.016,0.005-0.095,0.024-0.114,0.027c-0.061,0.002-0.137,0-0.196-0.027
			c-0.032,0.087-0.098,0.159-0.183,0.196c-1.384,0.612-2.475,1.218-3.433,1.911c-0.114,0.082-0.265,0.09-0.378,0.011
			c-0.116-0.072-0.177-0.209-0.154-0.344c0.315-1.782,1.845-4.458,4.815-5.324l-1.617-0.633c-0.087-0.035-0.156-0.103-0.191-0.191
			c-0.016-0.04-0.024-0.082-0.024-0.124c-0.119,0.082-0.252,0.093-0.318,0.093c-0.037,0-0.135-0.013-0.17-0.026
			c-0.386-0.122-0.773-0.251-1.159-0.379l-1.07-0.352c-0.161-0.053-0.32-0.098-0.495-0.143l-0.358-0.101
			c-0.127-0.037-0.222-0.146-0.241-0.278c-0.018-0.133,0.042-0.262,0.156-0.333c1.504-0.953,2.999-1.334,4.662-1.149
			c1.064,0.114,2.067,0.477,3.081,1.122c-0.667-1.477-0.94-2.896-0.855-4.376c0.008-0.114,0.069-0.217,0.167-0.272
			c0.098-0.058,0.217-0.061,0.32-0.013c2.15,1.04,3.484,2.798,4.162,5.504c0.294-0.365,0.678-0.683,1.17-0.969
			c0.275-0.164,0.612-0.35,0.982-0.466c0.429-0.135,0.874-0.207,1.268-0.27c0.22-0.037,0.442-0.05,0.665-0.05l0.204,0.003
			c0.86,0.029,2.232,0.323,3.029,0.768c0.111,0.061,0.177,0.177,0.175,0.305c-0.003,0.124-0.074,0.238-0.185,0.294l-4.696,2.366
			c0.424,0.05,0.818,0.14,1.196,0.27c0.699,0.246,1.295,0.664,1.766,1.244c0.434,0.535,0.712,1.167,0.876,1.991
			c0.058,0.304,0.072,0.609,0.082,0.903l0.013,0.27c0.008,0.108-0.021,0.209-0.042,0.281c-0.029,0.103-0.116,0.228-0.217,0.265
			c-0.098,0.037-0.22,0.066-0.312,0.008l-0.535-0.347c-0.416-0.27-0.826-0.535-1.242-0.794c-0.41-0.259-0.829-0.503-1.247-0.749
			c-0.09-0.053-0.193-0.13-0.249-0.257c-0.085,0.026-0.172,0.021-0.252-0.019l-0.217-0.109c-0.119-0.058-0.236-0.119-0.355-0.172
			l-0.503-0.212c-0.146-0.061-0.288-0.122-0.434-0.183c-0.259,0.336-0.577,0.577-0.95,0.723c-0.177,0.612-0.577,1.032-1.189,1.26
			c-0.005,0.016-0.011,0.037-0.013,0.058c-0.08,0.566-0.146,1.138-0.212,1.707l-0.013,0.116c-0.04,0.328-0.079,0.659-0.103,0.99
			c0.818,0.548,1.668,1.138,2.518,1.729l1.024,0.715c0.421,0.294,0.839,0.588,1.265,0.868c0.18,0.116,0.376,0.212,0.575,0.307
			l0.079,0.04l1.726-1.392c0.175-0.135,0.35-0.27,0.514-0.416c0.249-0.225,0.574-0.124,0.723,0.008l1.033,0.961
			c0.27,0.254,0.54,0.508,0.813,0.76c0.373,0.344,0.754,0.688,1.133,1.027l0.22,0.198l0.021-0.019
			c0.137-0.003,0.267-0.005,0.373-0.032c0.138-0.034,0.275-0.095,0.389-0.172c0.323-0.215,0.638-0.432,0.953-0.651
			c0.222-0.153,0.447-0.31,0.672-0.463c0.402-0.275,0.852-0.278,1.302-0.008c0.09,0.055,0.185,0.103,0.278,0.151
			c0.111,0.055,0.222,0.114,0.331,0.18c0.011,0.013,0.037,0,0.1-0.024c0.707-0.31,1.326-0.749,1.98-1.212l0.68-0.477
			c0.956-0.667,1.909-1.332,2.862-2.004l0.005-0.498c0.006-0.702,0.011-1.4-0.008-2.102c-0.011-0.365-0.058-0.733-0.103-1.099
			l-0.053-0.439c-0.053-0.458-0.103-0.892-0.167-1.324c-0.485-0.172-0.847-0.484-1.08-0.926l-1.472,0.953
			c-0.098,0.061-0.217,0.069-0.323,0.024c-0.029,0.122-0.114,0.246-0.299,0.342l-1.014,0.519c-0.622,0.318-1.242,0.638-1.869,0.951
			c-0.307,0.156-0.63,0.257-0.905,0.333c-0.106,0.032-0.217,0.008-0.304-0.061c-0.085-0.069-0.133-0.175-0.127-0.283
			c0.119-2.213,1.168-3.804,3.195-4.839c-1.861-0.664-3.465-1.509-4.879-2.568c-0.095-0.072-0.148-0.19-0.133-0.31
			c0.013-0.122,0.093-0.225,0.204-0.273c2.457-1.048,4.656-0.948,6.594,0.315c-0.032-0.148-0.058-0.294-0.082-0.44
			c-0.048-0.257-0.061-0.524-0.077-0.791L43.007,6.81c-0.042-0.755,0.048-1.488,0.267-2.184c0.072-0.225,0.159-0.447,0.249-0.667
			L43.627,3.7c0.024-0.072,0.058-0.148,0.09-0.222c0.056-0.122,0.198-0.254,0.333-0.254h0.249c0.101,0,0.193,0.045,0.259,0.119
			c0.072,0.085,0.146,0.169,0.22,0.251c0.185,0.209,0.378,0.426,0.54,0.672c0.484,0.744,0.818,1.604,1.019,2.626l0.093,0.482
			c0.103-0.077,0.207-0.154,0.312-0.228c0.73-0.524,1.533-0.876,2.38-1.048c0.58-0.114,1.022-0.164,1.437-0.164
			c0.691,0.005,1.318,0.098,1.792,0.177c0.868,0.148,1.665,0.471,2.329,0.768c0.08,0.035,0.146,0.08,0.204,0.119
			c0.106,0.069,0.196,0.212,0.185,0.339c-0.013,0.124-0.061,0.254-0.177,0.302l-1.575,0.649c-0.45,0.188-0.9,0.373-1.35,0.564
			c-0.236,0.101-0.458,0.013-0.572-0.056c-0.034-0.021-0.069-0.045-0.103-0.066l0.005,0.005c0.045,0.082,0.055,0.177,0.026,0.267
			c-0.026,0.09-0.09,0.162-0.175,0.204l-0.839,0.41c2.327,0.873,3.833,2.615,4.593,5.3c0.034,0.119,0,0.246-0.088,0.333
			c-0.108,0.108-0.325,0.177-0.46,0.093L54.15,15.21c-0.148-0.095-0.297-0.191-0.45-0.276c-0.68-0.376-1.369-0.744-2.054-1.109
			c-0.164-0.087-0.27-0.207-0.315-0.36c-0.095,0.074-0.222,0.095-0.344,0.045c-0.953-0.413-1.766-0.683-2.552-0.85
			c-0.14-0.029-0.278-0.048-0.416-0.063c-0.066,0.402-0.288,0.76-0.625,0.998c-0.085,0.063-0.093,0.069-0.058,0.238
			c0.024,0.143,0.061,0.304,0.106,0.495c0.241,1.064,0.688,3.042,0.688,7.071C48.13,24.375,46.438,31.046,45.684,31.046z
			 M24.114,30.363l0.995,0.005c-1.101-3.275-1.599-6.668-1.48-10.099c0.003-0.103,0.053-0.198,0.135-0.259
			c0.08-0.061,0.183-0.09,0.286-0.058c0.005,0,0.008,0,0.013,0.003c-0.045-0.032-0.09-0.063-0.135-0.095
			c-0.161-0.114-0.275-0.35-0.262-0.551c0.024-0.344,0.066-0.686,0.109-1.027l0.013-0.108c0.066-0.577,0.133-1.154,0.212-1.731
			c0.021-0.14,0.098-0.474,0.365-0.569c0.474-0.154,0.747-0.426,0.863-0.863c0.037-0.148,0.159-0.331,0.342-0.397
			c0.32-0.111,0.572-0.307,0.77-0.601c0.154-0.233,0.379-0.302,0.635-0.188c0.177,0.08,0.36,0.156,0.546,0.233l0.513,0.217
			c0.109,0.048,0.212,0.098,0.318,0.151l0.207-0.355c0.074-0.119,0.217-0.18,0.352-0.162c0.14,0.024,0.249,0.135,0.275,0.273
			c0.04,0.228,0.074,0.471,0.042,0.712c0.418,0.246,0.818,0.482,1.213,0.73c0.418,0.259,0.831,0.529,1.252,0.799l0.042,0.029
			c-0.011-0.246-0.024-0.482-0.069-0.709c-0.14-0.709-0.373-1.247-0.733-1.691c-0.397-0.49-0.876-0.829-1.464-1.033
			c-0.543-0.188-1.13-0.278-1.803-0.278l-0.196,0.002c0,0,0,0-0.002,0c-0.045,0-0.088-0.002-0.127-0.008
			c-0.127-0.013-0.296-0.101-0.342-0.223l0.302-0.167l-0.328,0.079c-0.045-0.156,0.029-0.323,0.172-0.394l5.093-2.568
			c-0.675-0.233-1.522-0.392-2.089-0.41L29.97,9.05c-0.185,0-0.373,0.011-0.559,0.04c-0.368,0.061-0.789,0.13-1.173,0.249
			c-0.302,0.095-0.596,0.259-0.839,0.405c-0.453,0.262-0.789,0.548-1.038,0.874c-0.087,0.111-0.188,0.214-0.289,0.318l-0.127,0.132
			c-0.09,0.095-0.217,0.122-0.342,0.095c-0.122-0.034-0.214-0.135-0.238-0.259c-0.54-2.666-1.62-4.363-3.468-5.422
			c0.011,1.583,0.484,3.119,1.469,4.784c0.085,0.143,0.053,0.323-0.072,0.431c-0.127,0.106-0.312,0.106-0.439,0
			c-1.332-1.125-2.579-1.715-3.921-1.861c-1.239-0.124-2.391,0.082-3.537,0.656c0.032,0.011,0.066,0.021,0.095,0.032l1.075,0.352
			c0.365,0.122,0.733,0.243,1.101,0.363c0.228-0.159,0.45-0.32,0.672-0.485l0.204-0.148c0.116-0.087,0.281-0.085,0.402,0.005
			c0.127,0.095,0.204,0.294,0.135,0.437l-0.283,0.601l2.353,0.921c0.143,0.055,0.233,0.204,0.212,0.36
			c-0.021,0.154-0.143,0.273-0.296,0.291c-2.87,0.328-4.527,2.422-5.151,4.146c0.76-0.482,1.609-0.932,2.605-1.379l0.05-0.675
			c0.013-0.148,0.119-0.272,0.265-0.304c0.167-0.027,0.299,0.037,0.371,0.167l0.251,0.447l0.561-0.164
			c0.567-0.172,1.133-0.342,1.697-0.524c0.44-0.138,0.726-0.066,0.993,0.233c0.159,0.167,0.236,0.331,0.262,0.564
			c0.021,0.191,0.053,0.402,0.132,0.548l0.082,0.148c0.095,0.172,0.169,0.307,0.31,0.471c0.069,0.085,0.095,0.196,0.069,0.299
			l-0.032,0.127c-0.024,0.093-0.056,0.201-0.074,0.31c-0.072,0.432-0.156,0.866-0.243,1.3c-0.151,0.76-0.307,1.543-0.373,2.309
			c-0.297,3.364,0.003,6.758,0.89,10.083l0.011,0.04L24.114,30.363z M45.085,30.365c0.138,0,0.273,0,0.408,0
			c0.4-0.892,1.959-5.633,1.959-8.966c0-3.955-0.437-5.885-0.672-6.92c-0.045-0.204-0.085-0.373-0.111-0.519
			c-0.037-0.191-0.116-0.596,0.331-0.916c0.222-0.159,0.352-0.397,0.363-0.678c0.019-0.299,0.209-0.524,0.561-0.463l0.137,0.016
			c0.172,0.021,0.344,0.042,0.514,0.08c0.752,0.159,1.52,0.405,2.396,0.768l0.318-0.588c0.074-0.135,0.233-0.204,0.37-0.172
			c0.148,0.032,0.257,0.159,0.268,0.31l0.019,0.289c0.019,0.228,0.034,0.447,0.037,0.667c0.662,0.318,1.342,0.683,2.02,1.054
			c-0.85-2.282-2.388-3.698-4.683-4.318c-0.137-0.037-0.235-0.156-0.249-0.296c-0.013-0.14,0.061-0.276,0.188-0.336l1.271-0.62
			l-0.455-0.807c-0.077-0.132-0.053-0.302,0.056-0.407c0.108-0.106,0.278-0.13,0.41-0.05l0.336,0.196
			c0.312,0.185,0.603,0.355,0.887,0.537c0.394-0.188,0.847-0.373,1.3-0.561l0.879-0.365c-0.519-0.214-1.098-0.416-1.702-0.519
			c-0.447-0.074-1.04-0.161-1.631-0.167c-0.003,0-0.003,0-0.003,0c-0.416,0-0.818,0.048-1.35,0.154
			c-0.752,0.151-1.464,0.463-2.118,0.932c-0.177,0.124-0.347,0.254-0.511,0.381l-0.22,0.167c-0.09,0.072-0.212,0.087-0.326,0.048
			c-0.108-0.042-0.188-0.138-0.212-0.254L45.67,7.025c-0.183-0.937-0.485-1.718-0.919-2.388c-0.135-0.204-0.302-0.392-0.479-0.593
			c-0.013-0.013-0.027-0.027-0.04-0.042l-0.082,0.209c-0.082,0.207-0.164,0.41-0.23,0.622c-0.196,0.614-0.275,1.268-0.235,1.94
			l0.005,0.103c0.013,0.238,0.024,0.477,0.066,0.709c0.048,0.297,0.111,0.582,0.175,0.874l0.09,0.418
			c0.029,0.141-0.034,0.286-0.156,0.36c-0.124,0.074-0.278,0.066-0.392-0.032c-1.779-1.482-3.738-1.811-6.06-0.98
			c1.438,0.993,3.081,1.774,5.003,2.383c0.135,0.042,0.23,0.167,0.236,0.312c0.005,0.143-0.082,0.273-0.214,0.326
			c-2.107,0.831-3.267,2.179-3.526,4.108c0.106-0.037,0.209-0.082,0.31-0.133c0.625-0.315,1.244-0.633,1.864-0.95l0.926-0.474
			c-0.042-0.146-0.072-0.291-0.103-0.44l-0.051-0.23c-0.034-0.153,0.04-0.31,0.18-0.378c0.129-0.074,0.325-0.056,0.429,0.053
			l0.434,0.463l1.572-1.017c0.09-0.061,0.201-0.072,0.299-0.034c0.101,0.034,0.177,0.116,0.209,0.217
			c0.151,0.484,0.439,0.776,0.903,0.919c0.228,0.071,0.342,0.323,0.365,0.477c0.064,0.45,0.116,0.905,0.169,1.358l0.056,0.458
			c0.048,0.386,0.095,0.776,0.109,1.165c0.018,0.709,0.013,1.419,0.008,2.126l-0.005,0.564c0,0.169-0.098,0.352-0.243,0.453
			c-0.064,0.045-0.127,0.09-0.191,0.135c0.055-0.011,0.138,0.008,0.204,0.042c0.114,0.063,0.18,0.188,0.172,0.318
			c-0.209,3.015-0.895,6.089-2.216,9.919H45.085z M38.788,26.657c0.053,0,0.109,0.013,0.156,0.04
			c0.103,0.053,0.169,0.154,0.18,0.268l0.011,0.093c0.011,0.077,0.016,0.14,0.016,0.207l0.008,2.105
			c0,0.143,0.151,0.294,0.302,0.302l0,0c0.204,0,0.392-0.146,0.392-0.474l-0.002-3.113c0-0.212,0.074-0.368,0.233-0.498
			c0.23-0.188,0.461-0.378,0.667-0.588c0.521-0.521,1.032-1.051,1.543-1.58c0.114-0.119,0.22-0.241,0.326-0.368
			c0.095-0.116,0.191-0.238,0.286-0.357c0.225-0.283,0.455-0.577,0.725-0.839l0.003-0.003c-0.066,0.045-0.133,0.093-0.196,0.138
			l-0.678,0.474c-0.654,0.463-1.331,0.942-2.102,1.279c-0.183,0.085-0.479,0.135-0.725-0.019c-0.09-0.055-0.188-0.103-0.286-0.154
			c-0.106-0.055-0.215-0.111-0.318-0.172c-0.212-0.129-0.384-0.143-0.572-0.013c-0.222,0.151-0.445,0.304-0.667,0.46
			c-0.32,0.22-0.638,0.442-0.961,0.657c-0.18,0.122-0.389,0.214-0.604,0.265c-0.177,0.048-0.363,0.05-0.524,0.053l-0.093,0.002l0,0
			c-0.196,0-0.339-0.108-0.392-0.156l-0.222-0.198c-0.381-0.344-0.765-0.688-1.141-1.035c-0.273-0.252-0.546-0.508-0.818-0.763
			L32.4,21.794c-0.151,0.127-0.302,0.246-0.455,0.363l-1.879,1.517c-0.103,0.085-0.251,0.098-0.368,0.04L29.43,23.58
			c-0.222-0.109-0.445-0.215-0.649-0.35c-0.434-0.286-0.858-0.582-1.284-0.879l-0.664-0.466c0.011,0.013,0.024,0.027,0.037,0.04
			c0.297,0.326,0.588,0.657,0.879,0.99c0.331,0.376,0.664,0.755,1.003,1.122c0.347,0.376,0.736,0.733,1.112,1.077
			c0.328,0.302,0.622,0.543,0.913,0.757c0.413,0.304,0.895,0.656,1.382,0.964c0.389,0.241,0.797,0.458,1.21,0.643
			c0.59,0.265,1.181,0.397,1.755,0.397c0.264,0,0.529-0.029,0.85-0.077c0.641-0.09,1.295-0.333,2.057-0.765l0.59-0.336
			C38.674,26.67,38.729,26.657,38.788,26.657z M33.096,24.682c-0.021,0-0.042-0.003-0.063-0.005l-1.392-0.265
			c-0.13-0.027-0.233-0.124-0.265-0.252c-0.032-0.13,0.013-0.265,0.116-0.347l0.625-0.503c0.132-0.101,0.32-0.101,0.442,0.011
			l0.784,0.715c0.095,0.087,0.132,0.22,0.098,0.344c-0.003,0.013-0.027,0.082-0.032,0.095
			C33.353,24.602,33.228,24.682,33.096,24.682z"/>
	</g>
</g>
<g id="n5hqEo_1_" display="none">
	<g id="XMLID_9797_" display="inline">
		<path id="XMLID_1894_" fill="#563D2D" d="M35.861,6.707c4.513,0.062,8.956,1.813,12.708,5.297c0.603,0.56,0.773,1.339,0.46,2.025
			c-0.303,0.664-1.001,1.093-1.756,0.938c-0.406-0.083-0.825-0.327-1.138-0.61c-1.939-1.747-4.142-2.999-6.664-3.687
			c-2.548-0.695-5.111-0.756-7.688-0.19c-2.863,0.629-5.358,1.961-7.499,3.959c-0.55,0.513-1.17,0.72-1.895,0.441
			c-1.087-0.418-1.497-1.817-0.668-2.623c0.927-0.901,1.941-1.742,3.021-2.452C27.923,7.714,31.452,6.716,35.861,6.707z"/>
		<path id="XMLID_1893_" fill="#563D2D" d="M35.244,12.402c3.706,0.06,6.9,1.363,9.58,3.921c0.696,0.664,0.763,1.662,0.174,2.358
			c-0.595,0.704-1.571,0.806-2.347,0.23c-0.76-0.565-1.469-1.21-2.27-1.706c-3.279-2.032-7.903-1.823-11.024,0.465
			c-0.502,0.368-0.956,0.802-1.445,1.189c-0.538,0.427-1.134,0.559-1.788,0.276c-0.604-0.261-0.935-0.735-1.013-1.373
			c-0.073-0.601,0.18-1.088,0.609-1.494C28.393,13.742,31.569,12.463,35.244,12.402z"/>
		<path id="XMLID_1892_" fill="#563D2D" d="M41.085,20.667c0.658,0.694,0.676,1.708,0.057,2.365
			c-0.631,0.671-1.598,0.716-2.358,0.113c-0.467-0.37-0.899-0.807-1.416-1.087c-1.795-0.97-3.929-0.619-5.386,0.837
			c-0.558,0.558-1.182,0.843-1.97,0.559c-1.056-0.381-1.467-1.684-0.769-2.564c0.949-1.198,2.202-1.982,3.66-2.4
			C36.424,17.594,39.498,18.995,41.085,20.667z"/>
		<path id="XMLID_1891_" fill="#563D2D" d="M33.2,26.099c0-1.121,0.905-2.037,2.027-2.049c1.134-0.013,2.067,0.913,2.067,2.049
			c0,1.138-0.938,2.068-2.067,2.051C34.1,28.132,33.201,27.222,33.2,26.099z"/>
	</g>
</g>
<g id="XMLID_9778_">
	<g id="XMLID_9788_">
		<path id="XMLID_1890_" fill="#563D2D" d="M41.909,8.407c0.098,0.09,0.173,0.205,0.259,0.308c0.246-1.855,0.494-3.71,0.732-5.567
			c0.014-0.112-0.047-0.235-0.073-0.352c-0.113,0.045-0.243,0.068-0.336,0.139c-1.401,1.06-2.797,2.126-4.193,3.192
			c-0.058,0.044-0.11,0.095-0.183,0.159c0.092,0.033,0.16,0.06,0.23,0.082C39.683,6.783,40.875,7.458,41.909,8.407z"/>
		<path id="XMLID_1889_" fill="#563D2D" d="M42.168,8.716L42.168,8.716L42.168,8.716c0.068,0.047,0.145,0.085,0.201,0.144
			c0.916,0.958,1.593,2.063,2.034,3.312c0.069,0.196,0.135,0.392,0.214,0.621c0.08-0.099,0.135-0.162,0.186-0.229
			c1.026-1.345,2.055-2.688,3.075-4.039c0.101-0.133,0.147-0.308,0.218-0.464c-0.173-0.013-0.35-0.056-0.518-0.035
			C45.774,8.25,43.971,8.484,42.168,8.716l-0.001-0.001l0,0.001L42.168,8.716z"/>
		<path id="XMLID_1888_" fill="#563D2D" d="M42.839,15.258c0.011-3.943-3.218-7.183-7.171-7.197
			c-3.95-0.014-7.185,3.195-7.213,7.155c0,0.034,0.001,0.068,0.001,0.102h14.383C42.839,15.298,42.839,15.278,42.839,15.258z"/>
		<path id="XMLID_1887_" fill="#563D2D" d="M44.635,12.917c0.202,0.809,0.296,1.606,0.291,2.401h5.034
			c0.025-0.022,0.05-0.044,0.076-0.064c-0.102-0.081-0.193-0.191-0.309-0.24c-1.594-0.673-3.192-1.339-4.79-2.004
			C44.855,12.976,44.768,12.957,44.635,12.917z"/>
		<path id="XMLID_1886_" fill="#563D2D" d="M25.212,10.89c0.479,0.628,0.959,1.255,1.46,1.91c0.039-0.108,0.067-0.175,0.088-0.244
			c0.407-1.306,1.058-2.474,1.973-3.492c0.11-0.123,0.248-0.22,0.373-0.33c-0.635-0.089-1.27-0.182-1.905-0.265
			c-1.209-0.159-2.417-0.316-3.627-0.463c-0.124-0.015-0.256,0.044-0.385,0.068c0.051,0.121,0.08,0.259,0.157,0.361
			C23.964,9.257,24.589,10.073,25.212,10.89z"/>
		<path id="XMLID_1885_" fill="#563D2D" d="M37.995,6.267c-0.048-0.138-0.069-0.209-0.097-0.277
			c-0.674-1.617-1.346-3.235-2.026-4.849c-0.044-0.106-0.152-0.184-0.23-0.275c-0.076,0.095-0.178,0.179-0.223,0.286
			c-0.546,1.289-1.083,2.581-1.622,3.872c-0.164,0.392-0.324,0.784-0.515,1.246C34.872,5.88,36.405,5.876,37.995,6.267z"/>
		<path id="XMLID_1884_" fill="#563D2D" d="M26.369,15.318c-0.006-0.799,0.091-1.599,0.292-2.416
			c-0.153,0.054-0.244,0.082-0.332,0.118c-1.588,0.663-3.176,1.324-4.761,1.994c-0.116,0.049-0.209,0.157-0.312,0.238
			c0.026,0.021,0.052,0.044,0.077,0.067H26.369z"/>
		<path id="XMLID_1883_" fill="#563D2D" d="M29.108,8.732L29.108,8.732L29.108,8.732c0.086-0.105,0.161-0.221,0.259-0.311
			c0.942-0.867,2.018-1.513,3.228-1.934c0.187-0.065,0.374-0.128,0.604-0.208c-0.615-0.469-1.193-0.91-1.77-1.35
			c-0.878-0.669-1.753-1.34-2.636-2.002c-0.092-0.069-0.223-0.084-0.337-0.124c-0.021,0.12-0.065,0.241-0.059,0.359
			c0.012,0.224,0.055,0.445,0.084,0.668C28.69,5.465,28.899,7.099,29.108,8.732l-0.001,0.001h0L29.108,8.732z"/>
	</g>
	<g id="XMLID_9779_">
		<g id="XMLID_9786_">
			<path id="XMLID_1882_" fill="#563D2D" d="M50.794,19.774H20.499c-0.646,0-1.173-0.527-1.173-1.173
				c0-0.646,0.527-1.173,1.173-1.173h30.295c0.646,0,1.173,0.527,1.173,1.173C51.967,19.248,51.44,19.774,50.794,19.774z"/>
		</g>
		<g id="XMLID_9784_">
			<path id="XMLID_1881_" fill="#563D2D" d="M43.325,24.281H25.897c-0.646,0-1.173-0.527-1.173-1.173
				c0-0.646,0.527-1.173,1.173-1.173h17.428c0.646,0,1.173,0.527,1.173,1.173C44.498,23.754,43.971,24.281,43.325,24.281z"/>
		</g>
		<g id="XMLID_9782_">
			<path id="XMLID_1880_" fill="#563D2D" d="M45.171,28.788h-8.47c-0.647,0-1.173-0.527-1.173-1.173
				c0-0.646,0.527-1.173,1.173-1.173h8.47c0.646,0,1.173,0.527,1.173,1.173C46.345,28.261,45.818,28.788,45.171,28.788z"/>
		</g>
		<g id="XMLID_9780_">
			<path id="XMLID_1879_" fill="#563D2D" d="M40.176,33.294h-8.47c-0.646,0-1.173-0.527-1.173-1.173
				c0-0.646,0.527-1.173,1.173-1.173h8.47c0.646,0,1.173,0.527,1.173,1.173C41.35,32.768,40.823,33.294,40.176,33.294z"/>
		</g>
	</g>
</g>
<g id="XMLID_9767_" display="none">
	<path id="XMLID_1878_" display="inline" fill-rule="evenodd" clip-rule="evenodd" fill="#563D2D" d="M35.967,4.321
		c0-0.738-0.598-1.337-1.336-1.337c-0.738,0-1.337,0.598-1.337,1.337v7.411h2.673V4.321L35.967,4.321z"/>
	<path id="XMLID_1877_" display="inline" fill-rule="evenodd" clip-rule="evenodd" fill="#563D2D" d="M22.439,12.802
		c-2.813,0-2.813,4.278,0,4.278h24.383c2.813,0,2.813-4.278,0-4.278H22.439L22.439,12.802z"/>
	<path id="XMLID_1876_" display="inline" fill-rule="evenodd" clip-rule="evenodd" fill="#563D2D" d="M44.663,18.149H24.597
		C29.972,21.416,39.288,21.416,44.663,18.149L44.663,18.149z"/>
	<path id="XMLID_1875_" display="inline" fill-rule="evenodd" clip-rule="evenodd" fill="#563D2D" d="M24.557,23.6
		c-0.127,1.965,2.653,1.965,2.525,0c-0.052-0.804-0.643-1.715-1.082-2.447c-0.07-0.113-0.125-0.167-0.181-0.167
		c-0.056,0-0.094,0.038-0.165,0.151C25.217,21.869,24.609,22.797,24.557,23.6L24.557,23.6z"/>
	<path id="XMLID_1874_" display="inline" fill-rule="evenodd" clip-rule="evenodd" fill="#563D2D" d="M30.431,24.67
		c-0.128,1.965,2.653,1.965,2.525,0c-0.052-0.803-0.644-1.715-1.081-2.447c-0.07-0.113-0.126-0.167-0.181-0.167
		c-0.056,0-0.095,0.038-0.164,0.151C31.091,22.938,30.483,23.866,30.431,24.67L30.431,24.67z"/>
	<path id="XMLID_1873_" display="inline" fill-rule="evenodd" clip-rule="evenodd" fill="#563D2D" d="M36.304,24.67
		c-0.127,1.965,2.652,1.965,2.525,0c-0.052-0.803-0.644-1.715-1.082-2.447c-0.07-0.113-0.125-0.167-0.181-0.167
		c-0.056,0-0.095,0.038-0.165,0.151C36.965,22.938,36.357,23.866,36.304,24.67L36.304,24.67z"/>
	<path id="XMLID_1872_" display="inline" fill-rule="evenodd" clip-rule="evenodd" fill="#563D2D" d="M42.178,23.6
		c-0.128,1.965,2.652,1.965,2.525,0c-0.052-0.804-0.644-1.715-1.082-2.447c-0.07-0.113-0.125-0.167-0.181-0.167
		c-0.056,0-0.095,0.038-0.165,0.151C42.838,21.869,42.23,22.797,42.178,23.6L42.178,23.6z"/>
	<path id="XMLID_1871_" display="inline" fill-rule="evenodd" clip-rule="evenodd" fill="#563D2D" d="M27.494,29.809
		c-0.128,1.965,2.652,1.965,2.525,0c-0.052-0.803-0.644-1.715-1.082-2.447c-0.07-0.113-0.126-0.167-0.181-0.167
		c-0.056,0-0.094,0.038-0.165,0.151C28.154,28.078,27.546,29.006,27.494,29.809L27.494,29.809z"/>
	<path id="XMLID_1870_" display="inline" fill-rule="evenodd" clip-rule="evenodd" fill="#563D2D" d="M33.367,29.809
		c-0.128,1.965,2.653,1.965,2.525,0c-0.052-0.803-0.644-1.715-1.082-2.447c-0.07-0.113-0.125-0.167-0.181-0.167
		c-0.056,0-0.094,0.038-0.165,0.151C34.028,28.078,33.419,29.006,33.367,29.809L33.367,29.809z"/>
	<path id="XMLID_1869_" display="inline" fill-rule="evenodd" clip-rule="evenodd" fill="#563D2D" d="M39.241,29.809
		c-0.128,1.965,2.653,1.965,2.525,0c-0.052-0.803-0.644-1.715-1.082-2.447c-0.07-0.113-0.125-0.167-0.181-0.167
		c-0.055,0-0.094,0.038-0.164,0.151C39.901,28.078,39.293,29.006,39.241,29.809z"/>
</g>
<g id="XMLID_9151_" display="none">
	<g id="XMLID_9156_" display="inline">
		<path id="XMLID_1457_" fill="#563D2D" d="M27.936,6.398H15.707c-0.625,0-1.132,0.507-1.132,1.132v5.947h3.41V9.76
			c0-0.625,0.507-1.132,1.132-1.132h5.338c0.625,0,1.132,0.507,1.132,1.132v3.717h3.481V7.53
			C29.068,6.905,28.561,6.398,27.936,6.398z"/>
		<path id="XMLID_1456_" fill="#563D2D" d="M32.065,20.535v-2.967c0-1.411-1.144-2.555-2.555-2.555H14.133
			c-1.411,0-2.555,1.144-2.555,2.555v2.967H32.065z"/>
		<polygon id="XMLID_1455_" fill="#563D2D" points="10.107,21.892 10.107,27.291 13.885,27.291 13.885,24.835 29.758,24.835 
			29.758,27.291 33.537,27.291 33.537,21.892 		"/>
	</g>
	<g id="XMLID_9152_" display="inline">
		<path id="XMLID_1454_" fill="#563D2D" d="M54.812,6.398H42.584c-0.625,0-1.132,0.507-1.132,1.132v5.947h3.41V9.76
			c0-0.625,0.507-1.132,1.132-1.132h5.338c0.625,0,1.132,0.507,1.132,1.132v3.717h3.481V7.53
			C55.945,6.905,55.438,6.398,54.812,6.398z"/>
		<path id="XMLID_1453_" fill="#563D2D" d="M58.941,20.535v-2.967c0-1.411-1.144-2.555-2.555-2.555H41.009
			c-1.411,0-2.555,1.144-2.555,2.555v2.967H58.941z"/>
		<polygon id="XMLID_1452_" fill="#563D2D" points="36.983,21.892 36.983,27.291 40.761,27.291 40.761,24.835 56.634,24.835 
			56.634,27.291 60.412,27.291 60.412,21.892 		"/>
	</g>
</g>
<g id="XMLID_1_" display="none">
	<g id="XMLID_9254_" display="inline">
		<path id="XMLID_1523_" fill="#563D2D" d="M64.104,6.357H42.695c-0.627,0-1.135,0.508-1.135,1.134v5.959h3.212V9.726
			c0-0.627,0.508-1.135,1.134-1.135h5.349c0.627,0,1.134,0.508,1.134,1.135v3.724h2.019V9.726c0-0.627,0.508-1.135,1.134-1.135
			h5.349c0.627,0,1.134,0.508,1.134,1.135v3.724h3.212V7.492C65.239,6.865,64.731,6.357,64.104,6.357z"/>
		<path id="XMLID_1522_" fill="#563D2D" d="M68.241,20.522V17.55c0-1.413-1.146-2.56-2.56-2.56H41.117
			c-1.413,0-2.56,1.146-2.56,2.56v2.973H68.241z"/>
		<polygon id="XMLID_1521_" fill="#563D2D" points="37.083,21.882 37.083,27.291 40.869,27.291 40.869,24.831 65.93,24.831 
			65.93,27.291 69.715,27.291 69.715,21.882 		"/>
	</g>
	<g id="XMLID_9250_" display="inline">
		<path id="XMLID_1520_" fill="#563D2D" d="M27.889,6.357H6.48c-0.627,0-1.135,0.508-1.135,1.134v5.959h3.212V9.726
			c0-0.627,0.508-1.135,1.134-1.135h5.349c0.627,0,1.134,0.508,1.134,1.135v3.724h2.019V9.726c0-0.627,0.508-1.135,1.134-1.135
			h5.349c0.627,0,1.134,0.508,1.134,1.135v3.724h3.212V7.492C29.024,6.865,28.516,6.357,27.889,6.357z"/>
		<path id="XMLID_1519_" fill="#563D2D" d="M32.026,20.522V17.55c0-1.413-1.146-2.56-2.56-2.56H4.902c-1.413,0-2.56,1.146-2.56,2.56
			v2.973H32.026z"/>
		<polygon id="XMLID_1518_" fill="#563D2D" points="0.869,21.882 0.869,27.291 4.654,27.291 4.654,24.831 29.715,24.831 
			29.715,27.291 33.5,27.291 33.5,21.882 		"/>
	</g>
</g>
<g id="XMLID_9246_" display="none">
	<path id="XMLID_1517_" display="inline" fill="#563D2D" d="M41.303,6.411H29.106c-0.624,0-1.129,0.506-1.129,1.129v5.932h3.401
		V9.765c0-0.624,0.506-1.129,1.129-1.129h5.324c0.624,0,1.129,0.506,1.129,1.129v3.707h3.472V7.54
		C42.432,6.917,41.926,6.411,41.303,6.411z"/>
	<path id="XMLID_1516_" display="inline" fill="#563D2D" d="M45.421,20.512v-2.959c0-1.407-1.141-2.548-2.548-2.548H27.535
		c-1.407,0-2.548,1.141-2.548,2.548v2.959H45.421z"/>
	<polygon id="XMLID_1515_" display="inline" fill="#563D2D" points="23.52,21.865 23.52,27.25 27.288,27.25 27.288,24.8 43.12,24.8 
		43.12,27.25 46.889,27.25 46.889,21.865 	"/>
</g>
</svg>
