<?xml version="1.0" encoding="utf-8"?>
<!-- Generator: Adobe Illustrator 19.0.0, SVG Export Plug-In . SVG Version: 6.00 Build 0)  -->
<svg version="1.1" id="Слой_1" xmlns="http://www.w3.org/2000/svg" xmlns:xlink="http://www.w3.org/1999/xlink" x="0px" y="0px"
	 width="152.764px" height="43.434px" viewBox="0 0 152.764 43.434" enable-background="new 0 0 152.764 43.434"
	 xml:space="preserve">
<g id="XMLID_16096_">
	<g id="XMLID_16097_">
		<g id="XMLID_16098_">
			<g id="XMLID_16099_">
				<path id="XMLID_16111_" fill="#BB946D" d="M102.111,1.945h-11.64c-0.796,0-1.474,0.579-1.597,1.365l-4.707,29.845
					c-0.093,0.589,0.363,1.122,0.959,1.122h5.972c0.557,0,1.032-0.405,1.118-0.956l1.335-8.461c0.124-0.786,0.801-1.365,1.597-1.365
					h3.683c7.666,0,12.091-3.71,13.248-11.064c0.52-3.216,0.021-5.743-1.485-7.512C108.938,2.973,106.004,1.945,102.111,1.945z
					 M103.454,12.845c-0.636,4.178-3.827,4.178-6.913,4.178h-1.756l1.232-7.8c0.074-0.472,0.481-0.819,0.958-0.819h0.805
					c2.1,0,4.085,0,5.108,1.197C103.5,10.317,103.685,11.378,103.454,12.845z"/>
				<path id="XMLID_16108_" fill="#BB946D" d="M19.094,1.945H7.454c-0.796,0-1.473,0.579-1.597,1.365L1.151,33.155
					c-0.093,0.589,0.362,1.122,0.959,1.122h5.557c0.796,0,1.474-0.579,1.597-1.365l1.27-8.052c0.124-0.786,0.801-1.365,1.597-1.365
					h3.683c7.667,0,12.091-3.71,13.248-11.064c0.52-3.216,0.021-5.743-1.485-7.512C25.922,2.973,22.988,1.945,19.094,1.945z
					 M20.437,12.845c-0.636,4.178-3.827,4.178-6.913,4.178h-1.756L13,9.223c0.074-0.472,0.481-0.819,0.959-0.819h0.805
					c2.101,0,4.085,0,5.108,1.197C20.484,10.317,20.669,11.378,20.437,12.845z"/>
				<path id="XMLID_16105_" fill="#BB946D" d="M53.883,12.711H48.31c-0.478,0-0.884,0.347-0.959,0.819l-0.245,1.558l-0.39-0.565
					c-1.207-1.752-3.897-2.337-6.583-2.337c-6.157,0-11.417,4.666-12.441,11.211c-0.533,3.265,0.223,6.385,2.075,8.563
					c1.701,2.001,4.128,2.834,7.02,2.834c4.963,0,7.716-3.189,7.716-3.189l-0.249,1.549c-0.093,0.589,0.362,1.122,0.958,1.122h5.019
					c0.796,0,1.473-0.579,1.597-1.365l3.013-19.079C54.935,13.244,54.479,12.711,53.883,12.711z M46.116,23.56
					c-0.538,3.184-3.066,5.323-6.291,5.323c-1.617,0-2.91-0.52-3.743-1.505c-0.824-0.976-1.135-2.367-0.873-3.915
					c0.502-3.156,3.07-5.363,6.246-5.363c1.583,0,2.868,0.525,3.716,1.519C46.025,20.619,46.36,22.019,46.116,23.56z"/>
				<path id="XMLID_16102_" fill="#BB946D" d="M136.9,12.711h-5.573c-0.478,0-0.884,0.347-0.958,0.819l-0.245,1.558l-0.389-0.565
					c-1.207-1.752-3.897-2.337-6.583-2.337c-6.157,0-11.417,4.666-12.441,11.211c-0.533,3.265,0.224,6.385,2.075,8.563
					c1.701,2.001,4.128,2.834,7.019,2.834c4.963,0,7.716-3.189,7.716-3.189l-0.249,1.549c-0.093,0.589,0.362,1.122,0.959,1.122
					h5.019c0.796,0,1.473-0.579,1.597-1.365l3.013-19.079C137.951,13.244,137.495,12.711,136.9,12.711z M129.132,23.56
					c-0.538,3.184-3.066,5.323-6.291,5.323c-1.617,0-2.911-0.52-3.743-1.505c-0.824-0.976-1.135-2.367-0.873-3.915
					c0.502-3.156,3.07-5.363,6.246-5.363c1.583,0,2.868,0.525,3.716,1.519C129.041,20.619,129.377,22.019,129.132,23.56z"/>
				<path id="XMLID_6613_" fill="#BB946D" d="M83.567,12.711h-5.602c-0.536,0-1.037,0.266-1.338,0.709L68.9,24.802l-3.275-10.937
					c-0.205-0.685-0.835-1.154-1.549-1.154h-5.507c-0.665,0-1.133,0.654-0.918,1.284l6.168,18.106l-5.802,8.186
					c-0.455,0.642,0.004,1.531,0.792,1.531h5.597c0.53,0,1.027-0.26,1.329-0.696l18.631-26.888
					C84.811,13.591,84.35,12.711,83.567,12.711z"/>
				<path id="XMLID_6612_" fill="#BB946D" d="M143.469,2.764l-4.777,30.391c-0.093,0.589,0.363,1.121,0.958,1.121h4.804
					c0.796,0,1.473-0.579,1.598-1.365l4.71-29.845c0.093-0.589-0.362-1.122-0.958-1.122h-5.377
					C143.949,1.945,143.543,2.293,143.469,2.764z"/>
			</g>
		</g>
	</g>
</g>
</svg>
