<?xml version="1.0" encoding="utf-8"?>
<!-- Generator: Adobe Illustrator 19.0.0, SVG Export Plug-In . SVG Version: 6.00 Build 0)  -->
<svg version="1.1" id="Слой_1" xmlns="http://www.w3.org/2000/svg" xmlns:xlink="http://www.w3.org/1999/xlink" x="0px" y="0px"
	 width="9.275px" height="15.512px" viewBox="0 0 9.275 15.512" enable-background="new 0 0 9.275 15.512" xml:space="preserve">
<g id="XMLID_7937_" display="none">
	<g id="XMLID_7940_" display="inline">
		<path id="XMLID_565_" fill="#BB946D" d="M9.275,7.879c0,0.237-0.093,0.474-0.279,0.648l-7.136,6.741
			c-0.358,0.339-0.924,0.323-1.261-0.035c-0.337-0.362-0.323-0.927,0.035-1.261L7.77,7.231c0.358-0.339,0.925-0.323,1.261,0.035
			C9.194,7.44,9.275,7.659,9.275,7.879z"/>
	</g>
	<g id="XMLID_7938_" display="inline">
		<path id="XMLID_564_" fill="#BB946D" d="M9.275,7.633c0,0.221-0.081,0.439-0.244,0.613C8.695,8.604,8.128,8.62,7.77,8.281
			L0.635,1.54C0.277,1.204,0.263,0.639,0.6,0.279c0.337-0.358,0.903-0.374,1.261-0.035l7.136,6.741
			C9.182,7.159,9.275,7.396,9.275,7.633z"/>
	</g>
</g>
<g id="XMLID_7932_">
	<g id="XMLID_7935_">
		<path id="XMLID_563_" fill="#BB946D" d="M0.077,7.633c0-0.237,0.093-0.474,0.279-0.648l7.136-6.741
			c0.358-0.339,0.925-0.323,1.261,0.035C9.089,0.641,9.075,1.206,8.717,1.54L1.582,8.281C1.224,8.62,0.657,8.604,0.321,8.246
			C0.158,8.072,0.077,7.854,0.077,7.633z"/>
	</g>
	<g id="XMLID_7933_">
		<path id="XMLID_562_" fill="#BB946D" d="M0.077,7.879c0-0.221,0.081-0.439,0.244-0.613c0.337-0.358,0.903-0.374,1.261-0.035
			l7.136,6.741c0.358,0.337,0.372,0.901,0.035,1.261c-0.337,0.358-0.904,0.374-1.261,0.035L0.355,8.527
			C0.169,8.353,0.077,8.116,0.077,7.879z"/>
	</g>
</g>
</svg>
