<?xml version="1.0" encoding="utf-8"?>
<!-- Generator: Adobe Illustrator 19.0.0, SVG Export Plug-In . SVG Version: 6.00 Build 0)  -->
<svg version="1.1" id="Слой_1" xmlns="http://www.w3.org/2000/svg" xmlns:xlink="http://www.w3.org/1999/xlink" x="0px" y="0px"
	 width="94.75px" height="61.5px" viewBox="0 0 94.75 61.5" enable-background="new 0 0 94.75 61.5" xml:space="preserve">
<g id="XMLID_16121_">
	<g id="XMLID_16159_">
		<path id="XMLID_6661_" fill="#FFDE9D" stroke="#FFDE9D" stroke-miterlimit="10" d="M32.978,6.113
			c4.137-1.801,9.273-2.773,14.439-2.773c5.173,0,9.861,0.975,14.002,2.784c-7.775,0.238-14.004,6.61-14.006,14.442
			C47.412,12.59,40.952,6.124,32.978,6.113z"/>
		<circle id="XMLID_6660_" fill="#EC2227" cx="32.543" cy="20.533" r="2.359"/>
		<circle id="XMLID_6659_" fill="#01A64F" cx="61.621" cy="20.501" r="2.359"/>
		<g id="XMLID_16160_">
			<path id="XMLID_16169_" d="M32.903,13.515c-3.875,0-7.017,3.142-7.017,7.018c0,3.878,3.142,7.017,7.017,7.017
				c3.876,0,7.018-3.139,7.018-7.017C39.92,16.658,36.779,13.515,32.903,13.515z M32.903,25.395c-2.685,0-4.862-2.177-4.862-4.862
				c0-2.686,2.177-4.863,4.862-4.863c2.686,0,4.863,2.177,4.863,4.863C37.766,23.218,35.589,25.395,32.903,25.395z M76.568,6.314
				h-9.662c-4.928-3.316-11.657-5.387-19.374-5.387c-7.72,0-14.911,2.07-19.839,5.387h-9.204c1.501,1.756,2.612,4.132,2.888,5.764
				c-1.735,2.384-2.763,5.316-2.763,8.49c0,7.986,6.473,14.459,14.457,14.459c4.531,0,8.573-2.087,11.224-5.348
				c1.081,1.263,2.871,3.804,3.234,4.543c0,0,2.076-3.101,3.243-4.53c2.65,3.254,6.689,5.336,11.214,5.336
				c7.984,0,14.458-6.474,14.458-14.459c0-3.172-1.029-6.102-2.764-8.485C73.954,10.451,75.065,8.073,76.568,6.314z M33.07,32.208
				c-6.428,0-11.639-5.211-11.639-11.64c0-6.426,5.211-11.638,11.639-11.638c6.428,0,11.639,5.212,11.639,11.638
				C44.71,26.997,39.498,32.208,33.07,32.208z M33.093,6.113c4.137-1.801,9.273-2.773,14.438-2.773
				c5.174,0,9.862,0.975,14.004,2.784c-7.775,0.238-14.005,6.61-14.007,14.442C47.526,12.59,41.066,6.124,33.093,6.113z
				 M61.985,32.208c-6.429,0-11.639-5.211-11.639-11.64c0-6.426,5.211-11.638,11.639-11.638c6.427,0,11.638,5.212,11.638,11.638
				C73.623,26.997,68.413,32.208,61.985,32.208z M61.981,13.483c-3.876,0-7.017,3.141-7.017,7.018c0,3.874,3.141,7.017,7.017,7.017
				c3.875,0,7.017-3.142,7.017-7.017C68.998,16.624,65.855,13.483,61.981,13.483z M61.981,25.363c-2.685,0-4.862-2.177-4.862-4.862
				c0-2.687,2.177-4.864,4.862-4.864c2.685,0,4.862,2.177,4.862,4.864C66.843,23.186,64.666,25.363,61.981,25.363z"/>
			<g id="XMLID_16161_">
				<g id="XMLID_16165_">
					<path id="XMLID_16166_" fill="#231F20" d="M79.819,8.655h-0.457V6.734h0.681c0.342,0,0.777,0.041,0.777,0.557
						c0,0.244-0.107,0.43-0.403,0.511l0.46,0.853h-0.504L79.974,7.87h-0.155V8.655z M79.819,7.564c0.262,0,0.302,0,0.368-0.021
						c0.147-0.047,0.158-0.152,0.158-0.257c0-0.133-0.046-0.199-0.137-0.23c-0.072-0.024-0.129-0.024-0.389-0.024V7.564z"/>
				</g>
				<path id="XMLID_16162_" fill="#231F20" d="M80.119,6.013c-0.965,0-1.747,0.783-1.747,1.747c0,0.965,0.782,1.746,1.747,1.746
					c0.965,0,1.747-0.782,1.747-1.746C81.866,6.796,81.085,6.013,80.119,6.013z M80.119,9.18c-0.783,0-1.419-0.635-1.419-1.419
					s0.636-1.419,1.419-1.419c0.783,0,1.419,0.635,1.419,1.419S80.902,9.18,80.119,9.18z"/>
			</g>
		</g>
	</g>
	<g id="XMLID_16122_">
		<g id="XMLID_16151_">
			<g id="XMLID_16155_">
				<path id="XMLID_16156_" fill="#01A64F" d="M91.797,48.677H91.34v-1.921h0.681c0.342,0,0.777,0.041,0.777,0.559
					c0,0.243-0.107,0.428-0.403,0.508l0.46,0.853h-0.504l-0.4-0.783h-0.155V48.677z M91.797,47.587c0.262,0,0.302,0,0.368-0.022
					c0.147-0.045,0.158-0.15,0.158-0.256c0-0.134-0.046-0.198-0.138-0.23c-0.072-0.022-0.129-0.022-0.388-0.022V47.587z"/>
			</g>
			<path id="XMLID_16152_" fill="#01A64F" d="M92.098,46.037c-0.965,0-1.747,0.78-1.747,1.745c0,0.965,0.782,1.749,1.747,1.749
				c0.966,0,1.747-0.783,1.747-1.749C93.845,46.817,93.063,46.037,92.098,46.037z M92.098,49.202c-0.783,0-1.419-0.636-1.419-1.419
				c0-0.783,0.636-1.419,1.419-1.419c0.783,0,1.419,0.636,1.419,1.419C93.517,48.566,92.881,49.202,92.098,49.202z"/>
		</g>
		<g id="XMLID_16127_">
			<path id="XMLID_6642_" fill="#231F20" d="M7.929,48.393v-1.586H5.346v-2.372L3.36,45.027v1.781H1.838v1.586H3.36v5.083
				c0,2.26,0.923,3.408,2.745,3.408c0.654,0,1.223-0.09,1.69-0.265l0.057-0.022l-0.09-1.563l-0.099,0.029
				c-0.265,0.077-0.615,0.115-1.038,0.115c-0.45,0-0.768-0.134-0.97-0.409c-0.205-0.281-0.309-0.758-0.309-1.41v-4.965H7.929z"/>
			<path id="XMLID_6641_" fill="#231F20" d="M14.79,46.628c-0.213-0.029-0.38-0.041-0.511-0.041c-0.61,0-1.182,0.198-1.701,0.588
				c-0.432,0.323-0.775,0.758-1.023,1.295l-0.103-1.662H9.646l0.006,0.086c0.053,0.796,0.08,1.832,0.08,3.079v6.691h2.026v-5.208
				c0-0.949,0.237-1.688,0.705-2.199c0.465-0.505,1.029-0.764,1.677-0.764c0.239,0,0.449,0.019,0.623,0.058l0.099,0.022v-1.934
				L14.79,46.628z"/>
			<g id="XMLID_16146_">
				<rect id="XMLID_6640_" x="16.622" y="46.807" fill="#231F20" width="2.026" height="9.856"/>
				<path id="XMLID_6639_" fill="#231F20" d="M17.625,45.209c0.382,0,0.695-0.125,0.93-0.364c0.235-0.243,0.354-0.543,0.354-0.898
					c0-0.348-0.121-0.646-0.36-0.885c-0.238-0.236-0.543-0.358-0.904-0.358c-0.375,0-0.686,0.121-0.924,0.358
					c-0.239,0.24-0.36,0.537-0.36,0.885c0,0.355,0.119,0.655,0.354,0.898C16.951,45.084,17.257,45.209,17.625,45.209z"/>
			</g>
			<path id="XMLID_16143_" fill="#231F20" d="M28.515,47.961c-0.79-0.943-1.793-1.423-2.983-1.423c-1.44,0-2.566,0.566-3.352,1.682
				l-0.082-1.461h-1.842l0.009,0.138c0.05,0.815,0.076,1.883,0.076,3.178v10.604h2.031v-5.045c0.281,0.368,0.64,0.665,1.07,0.886
				c0.539,0.275,1.14,0.412,1.786,0.412c1.27,0,2.345-0.492,3.194-1.461c0.846-0.965,1.274-2.276,1.274-3.897
				C29.696,50.116,29.299,48.898,28.515,47.961z M23.535,48.751c0.432-0.31,0.911-0.47,1.426-0.47c0.814,0,1.45,0.307,1.941,0.94
				c0.493,0.636,0.743,1.455,0.743,2.433c0,1.093-0.253,1.972-0.752,2.609c-0.499,0.636-1.156,0.946-2.009,0.946
				c-0.689,0-1.286-0.256-1.775-0.758c-0.49-0.502-0.739-1.132-0.739-1.873v-1.563c0-0.278,0.087-0.649,0.258-1.109
				C22.798,49.454,23.102,49.068,23.535,48.751z"/>
			<path id="XMLID_16140_" fill="#01A64F" d="M38.758,56.567c-0.106-0.579-0.159-1.355-0.159-2.308v-3.545
				c0-1.324-0.333-2.353-0.988-3.059c-0.658-0.71-1.64-1.068-2.919-1.068c-1.304,0-2.444,0.301-3.388,0.895l-0.055,0.032
				l0.475,1.381l0.087-0.054c0.758-0.483,1.632-0.729,2.6-0.729c0.715,0,1.259,0.186,1.618,0.553
				c0.36,0.364,0.543,0.885,0.543,1.547v0.099c-1.928,0.009-3.421,0.326-4.436,0.943c-1.042,0.633-1.571,1.563-1.571,2.765
				c0,0.786,0.288,1.467,0.855,2.024c0.568,0.559,1.332,0.841,2.271,0.841c1.269,0,2.283-0.454,3.015-1.349l0.2,1.129h1.869
				L38.758,56.567z M35.919,54.704c-0.462,0.422-1.044,0.636-1.726,0.636c-0.477,0-0.864-0.141-1.151-0.416
				c-0.285-0.272-0.43-0.659-0.43-1.148c0-0.627,0.285-1.109,0.873-1.471c0.58-0.358,1.633-0.543,3.129-0.55v1.522
				C36.613,53.805,36.38,54.285,35.919,54.704z"/>
			<path id="XMLID_16137_" fill="#01A64F" d="M49.018,56.711l-0.011-0.141c-0.05-0.611-0.075-1.461-0.075-2.532V42.191H46.9v5.556
				c-0.268-0.32-0.603-0.585-1.001-0.793c-0.527-0.278-1.133-0.416-1.797-0.416c-1.245,0-2.305,0.505-3.148,1.503
				c-0.838,0.991-1.263,2.289-1.263,3.855c0,1.445,0.404,2.66,1.201,3.603c0.802,0.949,1.818,1.432,3.019,1.432
				c0.744,0,1.419-0.176,2.007-0.528c0.468-0.278,0.852-0.652,1.148-1.109l0.11,1.416H49.018z M46.9,50.874v1.541
				c0,0.834-0.253,1.509-0.754,2.008c-0.502,0.495-1.081,0.748-1.721,0.748c-0.851,0-1.495-0.31-1.968-0.949
				c-0.475-0.642-0.716-1.464-0.716-2.445c0-1.045,0.255-1.905,0.758-2.554c0.501-0.646,1.144-0.959,1.965-0.959
				c0.665,0,1.243,0.24,1.719,0.716C46.658,49.454,46.9,50.094,46.9,50.874z"/>
			<path id="XMLID_6632_" fill="#01A64F" d="M57.334,46.807c0,0-2.529,5.163-2.709,5.745c-0.229-0.7-2.743-5.745-2.743-5.745h-2.199
				l4.952,9.856l4.862-9.856H57.334z"/>
			<g id="XMLID_16133_">
				<rect id="XMLID_6631_" x="60.478" y="46.807" fill="#01A64F" width="2.027" height="9.856"/>
				<path id="XMLID_6630_" fill="#01A64F" d="M61.482,45.209c0.382,0,0.695-0.125,0.93-0.364c0.233-0.243,0.353-0.543,0.353-0.898
					c0-0.348-0.121-0.646-0.36-0.885c-0.238-0.236-0.543-0.358-0.905-0.358c-0.374,0-0.686,0.121-0.924,0.358
					c-0.238,0.24-0.358,0.537-0.358,0.885c0,0.355,0.118,0.655,0.353,0.898C60.807,45.084,61.113,45.209,61.482,45.209z"/>
			</g>
			<path id="XMLID_6629_" fill="#01A64F" d="M70.497,52.085c-0.414-0.464-1.103-0.869-2.046-1.208
				c-0.753-0.269-1.255-0.518-1.488-0.742c-0.229-0.221-0.34-0.483-0.34-0.802c0-0.358,0.131-0.646,0.401-0.876
				c0.272-0.227,0.647-0.345,1.119-0.345c0.697,0,1.383,0.192,2.043,0.569l0.085,0.051l0.515-1.499l-0.058-0.035
				c-0.691-0.406-1.539-0.611-2.524-0.611c-1.064,0-1.929,0.288-2.573,0.85c-0.646,0.569-0.973,1.279-0.973,2.116
				c0,1.253,0.914,2.202,2.719,2.82c0.66,0.224,1.127,0.46,1.387,0.707c0.256,0.246,0.379,0.55,0.379,0.94
				c0,0.403-0.149,0.716-0.459,0.956c-0.31,0.24-0.762,0.364-1.341,0.364c-0.822,0-1.629-0.24-2.401-0.71l-0.089-0.054l-0.492,1.586
				l0.059,0.032c0.842,0.457,1.813,0.691,2.883,0.691c1.169,0,2.107-0.278,2.789-0.828c0.689-0.556,1.037-1.295,1.037-2.196
				C71.128,53.153,70.916,52.558,70.497,52.085z"/>
			<path id="XMLID_16129_" fill="#01A64F" d="M80.421,48c-0.868-0.937-2.012-1.413-3.4-1.413c-1.392,0-2.562,0.479-3.478,1.423
				c-0.914,0.943-1.378,2.222-1.378,3.807c0,1.49,0.449,2.717,1.335,3.654c0.887,0.937,2.027,1.413,3.389,1.413
				c0.873,0,1.696-0.217,2.447-0.643c0.753-0.425,1.346-1.042,1.763-1.835c0.417-0.789,0.628-1.72,0.628-2.772
				C81.727,50.158,81.288,48.936,80.421,48z M76.889,55.34c-0.782,0-1.442-0.339-1.961-1.007c-0.526-0.671-0.791-1.541-0.791-2.577
				c0-1.039,0.256-1.915,0.759-2.602c0.497-0.678,1.188-1.023,2.051-1.023c0.849,0,1.53,0.348,2.02,1.032
				c0.499,0.694,0.751,1.547,0.751,2.532c0,1.071-0.275,1.957-0.815,2.631C78.367,54.998,77.69,55.34,76.889,55.34z"/>
			<path id="XMLID_6626_" fill="#01A64F" d="M88.528,46.628c-0.213-0.029-0.38-0.041-0.511-0.041c-0.609,0-1.181,0.198-1.701,0.588
				c-0.432,0.323-0.775,0.758-1.023,1.295l-0.102-1.662h-1.806l0.005,0.086c0.053,0.796,0.08,1.832,0.08,3.079v6.691h2.027v-5.208
				c0-0.949,0.236-1.688,0.705-2.199c0.465-0.505,1.029-0.764,1.677-0.764c0.238,0,0.449,0.019,0.623,0.058l0.099,0.022v-1.934
				L88.528,46.628z"/>
		</g>
	</g>
</g>
</svg>
